<svg xmlns="http://www.w3.org/2000/svg" width="800" height="1131" version="1.1"><defs><linearGradient id="gr0" x1="0%" x2="100%" y1="0%" y2="100%"><stop offset="0%" stop-color="rgb(91,91,91)"/><stop offset="100%" stop-color="rgb(91,91,91)"/></linearGradient></defs><polygon id="triangle36" points="22,196 73,171 14,158" style="fill: url(#gr0); stroke: rgb(0, 0, 0); stroke-width: 0;"/><defs><linearGradient id="gr1" x1="0%" x2="100%" y1="0%" y2="100%"><stop offset="0%" stop-color="rgb(91,91,91)"/><stop offset="100%" stop-color="rgb(91,91,91)"/></linearGradient></defs><polygon id="triangle36" points="14,158 73,171 8,113" style="fill: url(#gr1); stroke: rgb(0, 0, 0); stroke-width: 0;"/><defs><linearGradient id="gr2" x1="0%" x2="100%" y1="0%" y2="100%"><stop offset="0%" stop-color="rgb(100,100,100)"/><stop offset="100%" stop-color="rgb(107,107,107)"/></linearGradient></defs><polygon id="triangle36" points="42,61 78,0 3,1" style="fill: url(#gr2); stroke: rgb(0, 0, 0); stroke-width: 0;"/><defs><linearGradient id="gr3" x1="0%" x2="100%" y1="0%" y2="100%"><stop offset="0%" stop-color="rgb(95,95,95)"/><stop offset="100%" stop-color="rgb(103,103,103)"/></linearGradient></defs><polygon id="triangle36" points="8,113 42,61 3,1" style="fill: url(#gr3); stroke: rgb(0, 0, 0); stroke-width: 0;"/><defs><linearGradient id="gr4" x1="0%" x2="100%" y1="0%" y2="100%"><stop offset="0%" stop-color="rgb(91,91,91)"/><stop offset="100%" stop-color="rgb(91,91,91)"/></linearGradient></defs><polygon id="triangle36" points="14,158 22,196 5,286" style="fill: url(#gr4); stroke: rgb(0, 0, 0); stroke-width: 0;"/><defs><linearGradient id="gr5" x1="0%" x2="100%" y1="0%" y2="100%"><stop offset="0%" stop-color="rgb(101,101,101)"/><stop offset="100%" stop-color="rgb(91,91,91)"/></linearGradient></defs><polygon id="triangle36" points="3,1 8,113 5,286" style="fill: url(#gr5); stroke: rgb(0, 0, 0); stroke-width: 0;"/><defs><linearGradient id="gr6" x1="0%" x2="100%" y1="0%" y2="100%"><stop offset="0%" stop-color="rgb(91,91,91)"/><stop offset="100%" stop-color="rgb(91,91,91)"/></linearGradient></defs><polygon id="triangle36" points="8,113 14,158 5,286" style="fill: url(#gr6); stroke: rgb(0, 0, 0); stroke-width: 0;"/><defs><linearGradient id="gr7" x1="0%" x2="100%" y1="0%" y2="100%"><stop offset="0%" stop-color="rgb(102,102,102)"/><stop offset="100%" stop-color="rgb(104,104,104)"/></linearGradient></defs><polygon id="triangle36" points="146,6 434,16 465,0" style="fill: url(#gr7); stroke: rgb(0, 0, 0); stroke-width: 0;"/><defs><linearGradient id="gr8" x1="0%" x2="100%" y1="0%" y2="100%"><stop offset="0%" stop-color="rgb(111,111,111)"/><stop offset="100%" stop-color="rgb(108,108,108)"/></linearGradient></defs><polygon id="triangle36" points="78,0 146,6 465,0" style="fill: url(#gr8); stroke: rgb(0, 0, 0); stroke-width: 0;"/><defs><linearGradient id="gr9" x1="0%" x2="100%" y1="0%" y2="100%"><stop offset="0%" stop-color="rgb(107,107,107)"/><stop offset="100%" stop-color="rgb(106,106,106)"/></linearGradient></defs><polygon id="triangle36" points="583,2 622,3 632,31" style="fill: url(#gr9); stroke: rgb(0, 0, 0); stroke-width: 0;"/><defs><linearGradient id="gr10" x1="0%" x2="100%" y1="0%" y2="100%"><stop offset="0%" stop-color="rgb(86,86,86)"/><stop offset="100%" stop-color="rgb(71,71,71)"/></linearGradient></defs><polygon id="triangle36" points="5,286 8,574 5,643" style="fill: url(#gr10); stroke: rgb(0, 0, 0); stroke-width: 0;"/><defs><linearGradient id="gr11" x1="0%" x2="100%" y1="0%" y2="100%"><stop offset="0%" stop-color="rgb(66,66,66)"/><stop offset="100%" stop-color="rgb(73,73,73)"/></linearGradient></defs><polygon id="triangle36" points="8,574 99,560 5,643" style="fill: url(#gr11); stroke: rgb(0, 0, 0); stroke-width: 0;"/><defs><linearGradient id="gr12" x1="0%" x2="100%" y1="0%" y2="100%"><stop offset="0%" stop-color="rgb(91,91,91)"/><stop offset="100%" stop-color="rgb(97,97,97)"/></linearGradient></defs><polygon id="triangle36" points="537,376 593,176 756,354" style="fill: url(#gr12); stroke: rgb(0, 0, 0); stroke-width: 0;"/><defs><linearGradient id="gr13" x1="0%" x2="100%" y1="0%" y2="100%"><stop offset="0%" stop-color="rgb(100,100,100)"/><stop offset="100%" stop-color="rgb(102,102,102)"/></linearGradient></defs><polygon id="triangle36" points="756,354 796,538 797,317" style="fill: url(#gr13); stroke: rgb(0, 0, 0); stroke-width: 0;"/><defs><linearGradient id="gr14" x1="0%" x2="100%" y1="0%" y2="100%"><stop offset="0%" stop-color="rgb(97,97,97)"/><stop offset="100%" stop-color="rgb(101,101,101)"/></linearGradient></defs><polygon id="triangle36" points="593,176 756,354 793,176" style="fill: url(#gr14); stroke: rgb(0, 0, 0); stroke-width: 0;"/><defs><linearGradient id="gr15" x1="0%" x2="100%" y1="0%" y2="100%"><stop offset="0%" stop-color="rgb(101,101,101)"/><stop offset="100%" stop-color="rgb(103,103,103)"/></linearGradient></defs><polygon id="triangle36" points="756,354 797,317 793,176" style="fill: url(#gr15); stroke: rgb(0, 0, 0); stroke-width: 0;"/><defs><linearGradient id="gr16" x1="0%" x2="100%" y1="0%" y2="100%"><stop offset="0%" stop-color="rgb(104,104,104)"/><stop offset="100%" stop-color="rgb(105,105,105)"/></linearGradient></defs><polygon id="triangle36" points="632,31 793,176 798,51" style="fill: url(#gr16); stroke: rgb(0, 0, 0); stroke-width: 0;"/><defs><linearGradient id="gr17" x1="0%" x2="100%" y1="0%" y2="100%"><stop offset="0%" stop-color="rgb(103,103,103)"/><stop offset="100%" stop-color="rgb(106,106,106)"/></linearGradient></defs><polygon id="triangle36" points="793,176 797,317 798,51" style="fill: url(#gr17); stroke: rgb(0, 0, 0); stroke-width: 0;"/><defs><linearGradient id="gr18" x1="0%" x2="100%" y1="0%" y2="100%"><stop offset="0%" stop-color="rgb(107,107,107)"/><stop offset="100%" stop-color="rgb(106,106,106)"/></linearGradient></defs><polygon id="triangle36" points="622,3 632,31 798,9" style="fill: url(#gr18); stroke: rgb(0, 0, 0); stroke-width: 0;"/><defs><linearGradient id="gr19" x1="0%" x2="100%" y1="0%" y2="100%"><stop offset="0%" stop-color="rgb(104,104,104)"/><stop offset="100%" stop-color="rgb(108,108,108)"/></linearGradient></defs><polygon id="triangle36" points="632,31 798,51 798,9" style="fill: url(#gr19); stroke: rgb(0, 0, 0); stroke-width: 0;"/><defs><linearGradient id="gr20" x1="0%" x2="100%" y1="0%" y2="100%"><stop offset="0%" stop-color="rgb(67,67,67)"/><stop offset="100%" stop-color="rgb(81,81,81)"/></linearGradient></defs><polygon id="triangle36" points="686,585 796,538 797,740" style="fill: url(#gr20); stroke: rgb(0, 0, 0); stroke-width: 0;"/><defs><linearGradient id="gr21" x1="0%" x2="100%" y1="0%" y2="100%"><stop offset="0%" stop-color="rgb(61,61,61)"/><stop offset="100%" stop-color="rgb(62,62,62)"/></linearGradient></defs><polygon id="triangle36" points="794,905 797,740 797,1018" style="fill: url(#gr21); stroke: rgb(0, 0, 0); stroke-width: 0;"/><defs><linearGradient id="gr22" x1="0%" x2="100%" y1="0%" y2="100%"><stop offset="0%" stop-color="rgb(51,51,51)"/><stop offset="100%" stop-color="rgb(48,48,48)"/></linearGradient></defs><polygon id="triangle36" points="591,923 797,1018 755,1088" style="fill: url(#gr22); stroke: rgb(0, 0, 0); stroke-width: 0;"/><defs><linearGradient id="gr23" x1="0%" x2="100%" y1="0%" y2="100%"><stop offset="0%" stop-color="rgb(61,61,61)"/><stop offset="100%" stop-color="rgb(57,57,57)"/></linearGradient></defs><polygon id="triangle36" points="1,886 105,943 3,1073" style="fill: url(#gr23); stroke: rgb(0, 0, 0); stroke-width: 0;"/><defs><linearGradient id="gr24" x1="0%" x2="100%" y1="0%" y2="100%"><stop offset="0%" stop-color="rgb(50,50,50)"/><stop offset="100%" stop-color="rgb(54,54,54)"/></linearGradient></defs><polygon id="triangle36" points="3,1073 105,943 17,1075" style="fill: url(#gr24); stroke: rgb(0, 0, 0); stroke-width: 0;"/><defs><linearGradient id="gr25" x1="0%" x2="100%" y1="0%" y2="100%"><stop offset="0%" stop-color="rgb(51,51,51)"/><stop offset="100%" stop-color="rgb(54,54,54)"/></linearGradient></defs><polygon id="triangle36" points="68,1084 105,943 17,1075" style="fill: url(#gr25); stroke: rgb(0, 0, 0); stroke-width: 0;"/><defs><linearGradient id="gr26" x1="0%" x2="100%" y1="0%" y2="100%"><stop offset="0%" stop-color="rgb(51,51,51)"/><stop offset="100%" stop-color="rgb(57,57,57)"/></linearGradient></defs><polygon id="triangle36" points="573,1103 591,923 657,1130" style="fill: url(#gr26); stroke: rgb(0, 0, 0); stroke-width: 0;"/><defs><linearGradient id="gr27" x1="0%" x2="100%" y1="0%" y2="100%"><stop offset="0%" stop-color="rgb(56,56,56)"/><stop offset="100%" stop-color="rgb(54,54,54)"/></linearGradient></defs><polygon id="triangle36" points="591,923 755,1088 657,1130" style="fill: url(#gr27); stroke: rgb(0, 0, 0); stroke-width: 0;"/><defs><linearGradient id="gr28" x1="0%" x2="100%" y1="0%" y2="100%"><stop offset="0%" stop-color="rgb(56,56,56)"/><stop offset="100%" stop-color="rgb(62,62,62)"/></linearGradient></defs><polygon id="triangle36" points="657,1130 755,1088 799,1130" style="fill: url(#gr28); stroke: rgb(0, 0, 0); stroke-width: 0;"/><defs><linearGradient id="gr29" x1="0%" x2="100%" y1="0%" y2="100%"><stop offset="0%" stop-color="rgb(51,51,51)"/><stop offset="100%" stop-color="rgb(62,62,62)"/></linearGradient></defs><polygon id="triangle36" points="755,1088 797,1018 799,1130" style="fill: url(#gr29); stroke: rgb(0, 0, 0); stroke-width: 0;"/><defs><linearGradient id="gr30" x1="0%" x2="100%" y1="0%" y2="100%"><stop offset="0%" stop-color="rgb(67,67,67)"/><stop offset="100%" stop-color="rgb(65,65,65)"/></linearGradient></defs><polygon id="triangle36" points="797,740 797,1018 799,1130" style="fill: url(#gr30); stroke: rgb(0, 0, 0); stroke-width: 0;"/><defs><linearGradient id="gr31" x1="0%" x2="100%" y1="0%" y2="100%"><stop offset="0%" stop-color="rgb(51,51,51)"/><stop offset="100%" stop-color="rgb(54,54,54)"/></linearGradient></defs><polygon id="triangle36" points="272,1112 272,1109 361,1130" style="fill: url(#gr31); stroke: rgb(0, 0, 0); stroke-width: 0;"/><defs><linearGradient id="gr32" x1="0%" x2="100%" y1="0%" y2="100%"><stop offset="0%" stop-color="rgb(51,51,51)"/><stop offset="100%" stop-color="rgb(57,57,57)"/></linearGradient></defs><polygon id="triangle36" points="272,1109 304,966 361,1130" style="fill: url(#gr32); stroke: rgb(0, 0, 0); stroke-width: 0;"/><defs><linearGradient id="gr33" x1="0%" x2="100%" y1="0%" y2="100%"><stop offset="0%" stop-color="rgb(51,51,51)"/><stop offset="100%" stop-color="rgb(57,57,57)"/></linearGradient></defs><polygon id="triangle36" points="573,1103 657,1130 361,1130" style="fill: url(#gr33); stroke: rgb(0, 0, 0); stroke-width: 0;"/><defs><linearGradient id="gr34" x1="0%" x2="100%" y1="0%" y2="100%"><stop offset="0%" stop-color="rgb(51,51,51)"/><stop offset="100%" stop-color="rgb(54,54,54)"/></linearGradient></defs><polygon id="triangle36" points="105,943 304,966 174,1130" style="fill: url(#gr34); stroke: rgb(0, 0, 0); stroke-width: 0;"/><defs><linearGradient id="gr35" x1="0%" x2="100%" y1="0%" y2="100%"><stop offset="0%" stop-color="rgb(51,51,51)"/><stop offset="100%" stop-color="rgb(54,54,54)"/></linearGradient></defs><polygon id="triangle36" points="17,1075 68,1084 174,1130" style="fill: url(#gr35); stroke: rgb(0, 0, 0); stroke-width: 0;"/><defs><linearGradient id="gr36" x1="0%" x2="100%" y1="0%" y2="100%"><stop offset="0%" stop-color="rgb(51,51,51)"/><stop offset="100%" stop-color="rgb(54,54,54)"/></linearGradient></defs><polygon id="triangle36" points="272,1109 272,1112 174,1130" style="fill: url(#gr36); stroke: rgb(0, 0, 0); stroke-width: 0;"/><defs><linearGradient id="gr37" x1="0%" x2="100%" y1="0%" y2="100%"><stop offset="0%" stop-color="rgb(51,51,51)"/><stop offset="100%" stop-color="rgb(57,57,57)"/></linearGradient></defs><polygon id="triangle36" points="272,1109 304,966 174,1130" style="fill: url(#gr37); stroke: rgb(0, 0, 0); stroke-width: 0;"/><defs><linearGradient id="gr38" x1="0%" x2="100%" y1="0%" y2="100%"><stop offset="0%" stop-color="rgb(51,51,51)"/><stop offset="100%" stop-color="rgb(57,57,57)"/></linearGradient></defs><polygon id="triangle36" points="272,1112 361,1130 174,1130" style="fill: url(#gr38); stroke: rgb(0, 0, 0); stroke-width: 0;"/><defs><linearGradient id="gr39" x1="0%" x2="100%" y1="0%" y2="100%"><stop offset="0%" stop-color="rgb(51,51,51)"/><stop offset="100%" stop-color="rgb(54,54,54)"/></linearGradient></defs><polygon id="triangle36" points="3,1073 17,1075 174,1130" style="fill: url(#gr39); stroke: rgb(0, 0, 0); stroke-width: 0;"/><defs><linearGradient id="gr40" x1="0%" x2="100%" y1="0%" y2="100%"><stop offset="0%" stop-color="rgb(51,51,51)"/><stop offset="100%" stop-color="rgb(57,57,57)"/></linearGradient></defs><polygon id="triangle36" points="68,1084 105,943 174,1130" style="fill: url(#gr40); stroke: rgb(0, 0, 0); stroke-width: 0;"/><defs><linearGradient id="gr41" x1="0%" x2="100%" y1="0%" y2="100%"><stop offset="0%" stop-color="rgb(101,101,101)"/><stop offset="100%" stop-color="rgb(100,100,100)"/></linearGradient></defs><polygon id="triangle36" points="146,6 434,16 318,67" style="fill: url(#gr41); stroke: rgb(0, 0, 0); stroke-width: 0;"/><defs><linearGradient id="gr42" x1="0%" x2="100%" y1="0%" y2="100%"><stop offset="0%" stop-color="rgb(91,91,91)"/><stop offset="100%" stop-color="rgb(95,95,95)"/></linearGradient></defs><polygon id="triangle36" points="319,167 383,91 318,67" style="fill: url(#gr42); stroke: rgb(0, 0, 0); stroke-width: 0;"/><defs><linearGradient id="gr43" x1="0%" x2="100%" y1="0%" y2="100%"><stop offset="0%" stop-color="rgb(97,97,97)"/><stop offset="100%" stop-color="rgb(100,100,100)"/></linearGradient></defs><polygon id="triangle36" points="383,91 434,16 318,67" style="fill: url(#gr43); stroke: rgb(0, 0, 0); stroke-width: 0;"/><defs><linearGradient id="gr44" x1="0%" x2="100%" y1="0%" y2="100%"><stop offset="0%" stop-color="rgb(91,91,91)"/><stop offset="100%" stop-color="rgb(91,91,91)"/></linearGradient></defs><polygon id="triangle36" points="250,248 319,167 212,143" style="fill: url(#gr44); stroke: rgb(0, 0, 0); stroke-width: 0;"/><defs><linearGradient id="gr45" x1="0%" x2="100%" y1="0%" y2="100%"><stop offset="0%" stop-color="rgb(95,95,95)"/><stop offset="100%" stop-color="rgb(91,91,91)"/></linearGradient></defs><polygon id="triangle36" points="318,67 319,167 212,143" style="fill: url(#gr45); stroke: rgb(0, 0, 0); stroke-width: 0;"/><defs><linearGradient id="gr46" x1="0%" x2="100%" y1="0%" y2="100%"><stop offset="0%" stop-color="rgb(87,87,87)"/><stop offset="100%" stop-color="rgb(91,91,91)"/></linearGradient></defs><polygon id="triangle36" points="123,332 250,248 108,269" style="fill: url(#gr46); stroke: rgb(0, 0, 0); stroke-width: 0;"/><defs><linearGradient id="gr47" x1="0%" x2="100%" y1="0%" y2="100%"><stop offset="0%" stop-color="rgb(91,91,91)"/><stop offset="100%" stop-color="rgb(91,91,91)"/></linearGradient></defs><polygon id="triangle36" points="22,196 73,171 108,269" style="fill: url(#gr47); stroke: rgb(0, 0, 0); stroke-width: 0;"/><defs><linearGradient id="gr48" x1="0%" x2="100%" y1="0%" y2="100%"><stop offset="0%" stop-color="rgb(90,90,90)"/><stop offset="100%" stop-color="rgb(88,88,88)"/></linearGradient></defs><polygon id="triangle36" points="5,286 123,332 108,269" style="fill: url(#gr48); stroke: rgb(0, 0, 0); stroke-width: 0;"/><defs><linearGradient id="gr49" x1="0%" x2="100%" y1="0%" y2="100%"><stop offset="0%" stop-color="rgb(91,91,91)"/><stop offset="100%" stop-color="rgb(91,91,91)"/></linearGradient></defs><polygon id="triangle36" points="5,286 22,196 108,269" style="fill: url(#gr49); stroke: rgb(0, 0, 0); stroke-width: 0;"/><defs><linearGradient id="gr50" x1="0%" x2="100%" y1="0%" y2="100%"><stop offset="0%" stop-color="rgb(91,91,91)"/><stop offset="100%" stop-color="rgb(91,91,91)"/></linearGradient></defs><polygon id="triangle36" points="250,248 319,167 297,266" style="fill: url(#gr50); stroke: rgb(0, 0, 0); stroke-width: 0;"/><defs><linearGradient id="gr51" x1="0%" x2="100%" y1="0%" y2="100%"><stop offset="0%" stop-color="rgb(91,91,91)"/><stop offset="100%" stop-color="rgb(91,91,91)"/></linearGradient></defs><polygon id="triangle36" points="108,269 250,248 194,204" style="fill: url(#gr51); stroke: rgb(0, 0, 0); stroke-width: 0;"/><defs><linearGradient id="gr52" x1="0%" x2="100%" y1="0%" y2="100%"><stop offset="0%" stop-color="rgb(91,91,91)"/><stop offset="100%" stop-color="rgb(91,91,91)"/></linearGradient></defs><polygon id="triangle36" points="212,143 250,248 194,204" style="fill: url(#gr52); stroke: rgb(0, 0, 0); stroke-width: 0;"/><defs><linearGradient id="gr53" x1="0%" x2="100%" y1="0%" y2="100%"><stop offset="0%" stop-color="rgb(91,91,91)"/><stop offset="100%" stop-color="rgb(91,91,91)"/></linearGradient></defs><polygon id="triangle36" points="108,269 194,204 124,179" style="fill: url(#gr53); stroke: rgb(0, 0, 0); stroke-width: 0;"/><defs><linearGradient id="gr54" x1="0%" x2="100%" y1="0%" y2="100%"><stop offset="0%" stop-color="rgb(91,91,91)"/><stop offset="100%" stop-color="rgb(91,91,91)"/></linearGradient></defs><polygon id="triangle36" points="123,111 212,143 124,179" style="fill: url(#gr54); stroke: rgb(0, 0, 0); stroke-width: 0;"/><defs><linearGradient id="gr55" x1="0%" x2="100%" y1="0%" y2="100%"><stop offset="0%" stop-color="rgb(91,91,91)"/><stop offset="100%" stop-color="rgb(91,91,91)"/></linearGradient></defs><polygon id="triangle36" points="194,204 212,143 124,179" style="fill: url(#gr55); stroke: rgb(0, 0, 0); stroke-width: 0;"/><defs><linearGradient id="gr56" x1="0%" x2="100%" y1="0%" y2="100%"><stop offset="0%" stop-color="rgb(91,91,91)"/><stop offset="100%" stop-color="rgb(91,91,91)"/></linearGradient></defs><polygon id="triangle36" points="73,171 108,269 124,179" style="fill: url(#gr56); stroke: rgb(0, 0, 0); stroke-width: 0;"/><defs><linearGradient id="gr57" x1="0%" x2="100%" y1="0%" y2="100%"><stop offset="0%" stop-color="rgb(91,91,91)"/><stop offset="100%" stop-color="rgb(91,91,91)"/></linearGradient></defs><polygon id="triangle36" points="73,171 123,111 124,179" style="fill: url(#gr57); stroke: rgb(0, 0, 0); stroke-width: 0;"/><defs><linearGradient id="gr58" x1="0%" x2="100%" y1="0%" y2="100%"><stop offset="0%" stop-color="rgb(100,100,100)"/><stop offset="100%" stop-color="rgb(102,102,102)"/></linearGradient></defs><polygon id="triangle36" points="42,61 78,0 99,89" style="fill: url(#gr58); stroke: rgb(0, 0, 0); stroke-width: 0;"/><defs><linearGradient id="gr59" x1="0%" x2="100%" y1="0%" y2="100%"><stop offset="0%" stop-color="rgb(91,91,91)"/><stop offset="100%" stop-color="rgb(93,93,93)"/></linearGradient></defs><polygon id="triangle36" points="73,171 123,111 99,89" style="fill: url(#gr59); stroke: rgb(0, 0, 0); stroke-width: 0;"/><defs><linearGradient id="gr60" x1="0%" x2="100%" y1="0%" y2="100%"><stop offset="0%" stop-color="rgb(95,95,95)"/><stop offset="100%" stop-color="rgb(99,99,99)"/></linearGradient></defs><polygon id="triangle36" points="8,113 42,61 99,89" style="fill: url(#gr60); stroke: rgb(0, 0, 0); stroke-width: 0;"/><defs><linearGradient id="gr61" x1="0%" x2="100%" y1="0%" y2="100%"><stop offset="0%" stop-color="rgb(91,91,91)"/><stop offset="100%" stop-color="rgb(93,93,93)"/></linearGradient></defs><polygon id="triangle36" points="8,113 73,171 99,89" style="fill: url(#gr61); stroke: rgb(0, 0, 0); stroke-width: 0;"/><defs><linearGradient id="gr62" x1="0%" x2="100%" y1="0%" y2="100%"><stop offset="0%" stop-color="rgb(91,91,91)"/><stop offset="100%" stop-color="rgb(94,94,94)"/></linearGradient></defs><polygon id="triangle36" points="123,111 212,143 208,67" style="fill: url(#gr62); stroke: rgb(0, 0, 0); stroke-width: 0;"/><defs><linearGradient id="gr63" x1="0%" x2="100%" y1="0%" y2="100%"><stop offset="0%" stop-color="rgb(101,101,101)"/><stop offset="100%" stop-color="rgb(100,100,100)"/></linearGradient></defs><polygon id="triangle36" points="146,6 318,67 208,67" style="fill: url(#gr63); stroke: rgb(0, 0, 0); stroke-width: 0;"/><defs><linearGradient id="gr64" x1="0%" x2="100%" y1="0%" y2="100%"><stop offset="0%" stop-color="rgb(91,91,91)"/><stop offset="100%" stop-color="rgb(97,97,97)"/></linearGradient></defs><polygon id="triangle36" points="212,143 318,67 208,67" style="fill: url(#gr64); stroke: rgb(0, 0, 0); stroke-width: 0;"/><defs><linearGradient id="gr65" x1="0%" x2="100%" y1="0%" y2="100%"><stop offset="0%" stop-color="rgb(95,95,95)"/><stop offset="100%" stop-color="rgb(100,100,100)"/></linearGradient></defs><polygon id="triangle36" points="123,111 208,67 150,31" style="fill: url(#gr65); stroke: rgb(0, 0, 0); stroke-width: 0;"/><defs><linearGradient id="gr66" x1="0%" x2="100%" y1="0%" y2="100%"><stop offset="0%" stop-color="rgb(101,101,101)"/><stop offset="100%" stop-color="rgb(100,100,100)"/></linearGradient></defs><polygon id="triangle36" points="146,6 208,67 150,31" style="fill: url(#gr66); stroke: rgb(0, 0, 0); stroke-width: 0;"/><defs><linearGradient id="gr67" x1="0%" x2="100%" y1="0%" y2="100%"><stop offset="0%" stop-color="rgb(105,105,105)"/><stop offset="100%" stop-color="rgb(101,101,101)"/></linearGradient></defs><polygon id="triangle36" points="78,0 146,6 150,31" style="fill: url(#gr67); stroke: rgb(0, 0, 0); stroke-width: 0;"/><defs><linearGradient id="gr68" x1="0%" x2="100%" y1="0%" y2="100%"><stop offset="0%" stop-color="rgb(105,105,105)"/><stop offset="100%" stop-color="rgb(99,99,99)"/></linearGradient></defs><polygon id="triangle36" points="78,0 99,89 150,31" style="fill: url(#gr68); stroke: rgb(0, 0, 0); stroke-width: 0;"/><defs><linearGradient id="gr69" x1="0%" x2="100%" y1="0%" y2="100%"><stop offset="0%" stop-color="rgb(98,98,98)"/><stop offset="100%" stop-color="rgb(97,97,97)"/></linearGradient></defs><polygon id="triangle36" points="99,89 123,111 150,31" style="fill: url(#gr69); stroke: rgb(0, 0, 0); stroke-width: 0;"/><defs><linearGradient id="gr70" x1="0%" x2="100%" y1="0%" y2="100%"><stop offset="0%" stop-color="rgb(97,97,97)"/><stop offset="100%" stop-color="rgb(100,100,100)"/></linearGradient></defs><polygon id="triangle36" points="383,91 434,16 592,86" style="fill: url(#gr70); stroke: rgb(0, 0, 0); stroke-width: 0;"/><defs><linearGradient id="gr71" x1="0%" x2="100%" y1="0%" y2="100%"><stop offset="0%" stop-color="rgb(92,92,92)"/><stop offset="100%" stop-color="rgb(95,95,95)"/></linearGradient></defs><polygon id="triangle36" points="383,91 593,176 592,86" style="fill: url(#gr71); stroke: rgb(0, 0, 0); stroke-width: 0;"/><defs><linearGradient id="gr72" x1="0%" x2="100%" y1="0%" y2="100%"><stop offset="0%" stop-color="rgb(100,100,100)"/><stop offset="100%" stop-color="rgb(104,104,104)"/></linearGradient></defs><polygon id="triangle36" points="434,16 465,0 592,86" style="fill: url(#gr72); stroke: rgb(0, 0, 0); stroke-width: 0;"/><defs><linearGradient id="gr73" x1="0%" x2="100%" y1="0%" y2="100%"><stop offset="0%" stop-color="rgb(105,105,105)"/><stop offset="100%" stop-color="rgb(104,104,104)"/></linearGradient></defs><polygon id="triangle36" points="465,0 583,2 592,86" style="fill: url(#gr73); stroke: rgb(0, 0, 0); stroke-width: 0;"/><defs><linearGradient id="gr74" x1="0%" x2="100%" y1="0%" y2="100%"><stop offset="0%" stop-color="rgb(107,107,107)"/><stop offset="100%" stop-color="rgb(103,103,103)"/></linearGradient></defs><polygon id="triangle36" points="583,2 632,31 592,86" style="fill: url(#gr74); stroke: rgb(0, 0, 0); stroke-width: 0;"/><defs><linearGradient id="gr75" x1="0%" x2="100%" y1="0%" y2="100%"><stop offset="0%" stop-color="rgb(97,97,97)"/><stop offset="100%" stop-color="rgb(101,101,101)"/></linearGradient></defs><polygon id="triangle36" points="593,176 793,176 592,86" style="fill: url(#gr75); stroke: rgb(0, 0, 0); stroke-width: 0;"/><defs><linearGradient id="gr76" x1="0%" x2="100%" y1="0%" y2="100%"><stop offset="0%" stop-color="rgb(103,103,103)"/><stop offset="100%" stop-color="rgb(101,101,101)"/></linearGradient></defs><polygon id="triangle36" points="632,31 793,176 592,86" style="fill: url(#gr76); stroke: rgb(0, 0, 0); stroke-width: 0;"/><defs><linearGradient id="gr77" x1="0%" x2="100%" y1="0%" y2="100%"><stop offset="0%" stop-color="rgb(91,91,91)"/><stop offset="100%" stop-color="rgb(91,91,91)"/></linearGradient></defs><polygon id="triangle36" points="297,266 319,167 497,255" style="fill: url(#gr77); stroke: rgb(0, 0, 0); stroke-width: 0;"/><defs><linearGradient id="gr78" x1="0%" x2="100%" y1="0%" y2="100%"><stop offset="0%" stop-color="rgb(91,91,91)"/><stop offset="100%" stop-color="rgb(92,92,92)"/></linearGradient></defs><polygon id="triangle36" points="319,167 383,91 497,255" style="fill: url(#gr78); stroke: rgb(0, 0, 0); stroke-width: 0;"/><defs><linearGradient id="gr79" x1="0%" x2="100%" y1="0%" y2="100%"><stop offset="0%" stop-color="rgb(92,92,92)"/><stop offset="100%" stop-color="rgb(91,91,91)"/></linearGradient></defs><polygon id="triangle36" points="383,91 593,176 497,255" style="fill: url(#gr79); stroke: rgb(0, 0, 0); stroke-width: 0;"/><defs><linearGradient id="gr80" x1="0%" x2="100%" y1="0%" y2="100%"><stop offset="0%" stop-color="rgb(87,87,87)"/><stop offset="100%" stop-color="rgb(91,91,91)"/></linearGradient></defs><polygon id="triangle36" points="537,376 593,176 497,255" style="fill: url(#gr80); stroke: rgb(0, 0, 0); stroke-width: 0;"/><defs><linearGradient id="gr81" x1="0%" x2="100%" y1="0%" y2="100%"><stop offset="0%" stop-color="rgb(83,83,83)"/><stop offset="100%" stop-color="rgb(85,85,85)"/></linearGradient></defs><polygon id="triangle36" points="123,332 250,248 308,404" style="fill: url(#gr81); stroke: rgb(0, 0, 0); stroke-width: 0;"/><defs><linearGradient id="gr82" x1="0%" x2="100%" y1="0%" y2="100%"><stop offset="0%" stop-color="rgb(81,81,81)"/><stop offset="100%" stop-color="rgb(81,81,81)"/></linearGradient></defs><polygon id="triangle36" points="243,543 396,505 308,404" style="fill: url(#gr82); stroke: rgb(0, 0, 0); stroke-width: 0;"/><defs><linearGradient id="gr83" x1="0%" x2="100%" y1="0%" y2="100%"><stop offset="0%" stop-color="rgb(87,87,87)"/><stop offset="100%" stop-color="rgb(85,85,85)"/></linearGradient></defs><polygon id="triangle36" points="250,248 297,266 308,404" style="fill: url(#gr83); stroke: rgb(0, 0, 0); stroke-width: 0;"/><defs><linearGradient id="gr84" x1="0%" x2="100%" y1="0%" y2="100%"><stop offset="0%" stop-color="rgb(87,87,87)"/><stop offset="100%" stop-color="rgb(85,85,85)"/></linearGradient></defs><polygon id="triangle36" points="297,266 497,255 308,404" style="fill: url(#gr84); stroke: rgb(0, 0, 0); stroke-width: 0;"/><defs><linearGradient id="gr85" x1="0%" x2="100%" y1="0%" y2="100%"><stop offset="0%" stop-color="rgb(81,81,81)"/><stop offset="100%" stop-color="rgb(82,82,82)"/></linearGradient></defs><polygon id="triangle36" points="396,505 537,376 308,404" style="fill: url(#gr85); stroke: rgb(0, 0, 0); stroke-width: 0;"/><defs><linearGradient id="gr86" x1="0%" x2="100%" y1="0%" y2="100%"><stop offset="0%" stop-color="rgb(87,87,87)"/><stop offset="100%" stop-color="rgb(83,83,83)"/></linearGradient></defs><polygon id="triangle36" points="497,255 537,376 308,404" style="fill: url(#gr86); stroke: rgb(0, 0, 0); stroke-width: 0;"/><defs><linearGradient id="gr87" x1="0%" x2="100%" y1="0%" y2="100%"><stop offset="0%" stop-color="rgb(83,83,83)"/><stop offset="100%" stop-color="rgb(82,82,82)"/></linearGradient></defs><polygon id="triangle36" points="123,332 308,404 107,458" style="fill: url(#gr87); stroke: rgb(0, 0, 0); stroke-width: 0;"/><defs><linearGradient id="gr88" x1="0%" x2="100%" y1="0%" y2="100%"><stop offset="0%" stop-color="rgb(81,81,81)"/><stop offset="100%" stop-color="rgb(81,81,81)"/></linearGradient></defs><polygon id="triangle36" points="243,543 308,404 107,458" style="fill: url(#gr88); stroke: rgb(0, 0, 0); stroke-width: 0;"/><defs><linearGradient id="gr89" x1="0%" x2="100%" y1="0%" y2="100%"><stop offset="0%" stop-color="rgb(87,87,87)"/><stop offset="100%" stop-color="rgb(82,82,82)"/></linearGradient></defs><polygon id="triangle36" points="5,286 123,332 107,458" style="fill: url(#gr89); stroke: rgb(0, 0, 0); stroke-width: 0;"/><defs><linearGradient id="gr90" x1="0%" x2="100%" y1="0%" y2="100%"><stop offset="0%" stop-color="rgb(86,86,86)"/><stop offset="100%" stop-color="rgb(75,75,75)"/></linearGradient></defs><polygon id="triangle36" points="5,286 8,574 107,458" style="fill: url(#gr90); stroke: rgb(0, 0, 0); stroke-width: 0;"/><defs><linearGradient id="gr91" x1="0%" x2="100%" y1="0%" y2="100%"><stop offset="0%" stop-color="rgb(72,72,72)"/><stop offset="100%" stop-color="rgb(81,81,81)"/></linearGradient></defs><polygon id="triangle36" points="8,574 99,560 107,458" style="fill: url(#gr91); stroke: rgb(0, 0, 0); stroke-width: 0;"/><defs><linearGradient id="gr92" x1="0%" x2="100%" y1="0%" y2="100%"><stop offset="0%" stop-color="rgb(81,81,81)"/><stop offset="100%" stop-color="rgb(81,81,81)"/></linearGradient></defs><polygon id="triangle36" points="99,560 243,543 107,458" style="fill: url(#gr92); stroke: rgb(0, 0, 0); stroke-width: 0;"/><defs><linearGradient id="gr93" x1="0%" x2="100%" y1="0%" y2="100%"><stop offset="0%" stop-color="rgb(81,81,81)"/><stop offset="100%" stop-color="rgb(81,81,81)"/></linearGradient></defs><polygon id="triangle36" points="396,505 537,376 505,562" style="fill: url(#gr93); stroke: rgb(0, 0, 0); stroke-width: 0;"/><defs><linearGradient id="gr94" x1="0%" x2="100%" y1="0%" y2="100%"><stop offset="0%" stop-color="rgb(69,69,69)"/><stop offset="100%" stop-color="rgb(72,72,72)"/></linearGradient></defs><polygon id="triangle36" points="531,635 686,585 505,562" style="fill: url(#gr94); stroke: rgb(0, 0, 0); stroke-width: 0;"/><defs><linearGradient id="gr95" x1="0%" x2="100%" y1="0%" y2="100%"><stop offset="0%" stop-color="rgb(81,81,81)"/><stop offset="100%" stop-color="rgb(88,88,88)"/></linearGradient></defs><polygon id="triangle36" points="505,562 537,376 645,462" style="fill: url(#gr95); stroke: rgb(0, 0, 0); stroke-width: 0;"/><defs><linearGradient id="gr96" x1="0%" x2="100%" y1="0%" y2="100%"><stop offset="0%" stop-color="rgb(90,90,90)"/><stop offset="100%" stop-color="rgb(89,89,89)"/></linearGradient></defs><polygon id="triangle36" points="505,562 686,585 645,462" style="fill: url(#gr96); stroke: rgb(0, 0, 0); stroke-width: 0;"/><defs><linearGradient id="gr97" x1="0%" x2="100%" y1="0%" y2="100%"><stop offset="0%" stop-color="rgb(91,91,91)"/><stop offset="100%" stop-color="rgb(100,100,100)"/></linearGradient></defs><polygon id="triangle36" points="537,376 756,354 645,462" style="fill: url(#gr97); stroke: rgb(0, 0, 0); stroke-width: 0;"/><defs><linearGradient id="gr98" x1="0%" x2="100%" y1="0%" y2="100%"><stop offset="0%" stop-color="rgb(83,83,83)"/><stop offset="100%" stop-color="rgb(100,100,100)"/></linearGradient></defs><polygon id="triangle36" points="686,585 796,538 645,462" style="fill: url(#gr98); stroke: rgb(0, 0, 0); stroke-width: 0;"/><defs><linearGradient id="gr99" x1="0%" x2="100%" y1="0%" y2="100%"><stop offset="0%" stop-color="rgb(100,100,100)"/><stop offset="100%" stop-color="rgb(100,100,100)"/></linearGradient></defs><polygon id="triangle36" points="756,354 796,538 645,462" style="fill: url(#gr99); stroke: rgb(0, 0, 0); stroke-width: 0;"/><defs><linearGradient id="gr100" x1="0%" x2="100%" y1="0%" y2="100%"><stop offset="0%" stop-color="rgb(68,68,68)"/><stop offset="100%" stop-color="rgb(62,62,62)"/></linearGradient></defs><polygon id="triangle36" points="531,635 686,585 642,753" style="fill: url(#gr100); stroke: rgb(0, 0, 0); stroke-width: 0;"/><defs><linearGradient id="gr101" x1="0%" x2="100%" y1="0%" y2="100%"><stop offset="0%" stop-color="rgb(67,67,67)"/><stop offset="100%" stop-color="rgb(64,64,64)"/></linearGradient></defs><polygon id="triangle36" points="686,585 797,740 642,753" style="fill: url(#gr101); stroke: rgb(0, 0, 0); stroke-width: 0;"/><defs><linearGradient id="gr102" x1="0%" x2="100%" y1="0%" y2="100%"><stop offset="0%" stop-color="rgb(69,69,69)"/><stop offset="100%" stop-color="rgb(73,73,73)"/></linearGradient></defs><polygon id="triangle36" points="360,670 396,505 434,638" style="fill: url(#gr102); stroke: rgb(0, 0, 0); stroke-width: 0;"/><defs><linearGradient id="gr103" x1="0%" x2="100%" y1="0%" y2="100%"><stop offset="0%" stop-color="rgb(81,81,81)"/><stop offset="100%" stop-color="rgb(77,77,77)"/></linearGradient></defs><polygon id="triangle36" points="396,505 505,562 434,638" style="fill: url(#gr103); stroke: rgb(0, 0, 0); stroke-width: 0;"/><defs><linearGradient id="gr104" x1="0%" x2="100%" y1="0%" y2="100%"><stop offset="0%" stop-color="rgb(75,75,75)"/><stop offset="100%" stop-color="rgb(69,69,69)"/></linearGradient></defs><polygon id="triangle36" points="505,562 531,635 434,638" style="fill: url(#gr104); stroke: rgb(0, 0, 0); stroke-width: 0;"/><defs><linearGradient id="gr105" x1="0%" x2="100%" y1="0%" y2="100%"><stop offset="0%" stop-color="rgb(69,69,69)"/><stop offset="100%" stop-color="rgb(69,69,69)"/></linearGradient></defs><polygon id="triangle36" points="206,722 277,729 271,612" style="fill: url(#gr105); stroke: rgb(0, 0, 0); stroke-width: 0;"/><defs><linearGradient id="gr106" x1="0%" x2="100%" y1="0%" y2="100%"><stop offset="0%" stop-color="rgb(81,81,81)"/><stop offset="100%" stop-color="rgb(77,77,77)"/></linearGradient></defs><polygon id="triangle36" points="243,543 396,505 271,612" style="fill: url(#gr106); stroke: rgb(0, 0, 0); stroke-width: 0;"/><defs><linearGradient id="gr107" x1="0%" x2="100%" y1="0%" y2="100%"><stop offset="0%" stop-color="rgb(69,69,69)"/><stop offset="100%" stop-color="rgb(69,69,69)"/></linearGradient></defs><polygon id="triangle36" points="277,729 360,670 271,612" style="fill: url(#gr107); stroke: rgb(0, 0, 0); stroke-width: 0;"/><defs><linearGradient id="gr108" x1="0%" x2="100%" y1="0%" y2="100%"><stop offset="0%" stop-color="rgb(69,69,69)"/><stop offset="100%" stop-color="rgb(73,73,73)"/></linearGradient></defs><polygon id="triangle36" points="360,670 396,505 271,612" style="fill: url(#gr108); stroke: rgb(0, 0, 0); stroke-width: 0;"/><defs><linearGradient id="gr109" x1="0%" x2="100%" y1="0%" y2="100%"><stop offset="0%" stop-color="rgb(56,56,56)"/><stop offset="100%" stop-color="rgb(63,63,63)"/></linearGradient></defs><polygon id="triangle36" points="1,886 206,722 150,653" style="fill: url(#gr109); stroke: rgb(0, 0, 0); stroke-width: 0;"/><defs><linearGradient id="gr110" x1="0%" x2="100%" y1="0%" y2="100%"><stop offset="0%" stop-color="rgb(65,65,65)"/><stop offset="100%" stop-color="rgb(69,69,69)"/></linearGradient></defs><polygon id="triangle36" points="1,886 5,643 150,653" style="fill: url(#gr110); stroke: rgb(0, 0, 0); stroke-width: 0;"/><defs><linearGradient id="gr111" x1="0%" x2="100%" y1="0%" y2="100%"><stop offset="0%" stop-color="rgb(69,69,69)"/><stop offset="100%" stop-color="rgb(69,69,69)"/></linearGradient></defs><polygon id="triangle36" points="206,722 271,612 150,653" style="fill: url(#gr111); stroke: rgb(0, 0, 0); stroke-width: 0;"/><defs><linearGradient id="gr112" x1="0%" x2="100%" y1="0%" y2="100%"><stop offset="0%" stop-color="rgb(75,75,75)"/><stop offset="100%" stop-color="rgb(69,69,69)"/></linearGradient></defs><polygon id="triangle36" points="243,543 271,612 150,653" style="fill: url(#gr112); stroke: rgb(0, 0, 0); stroke-width: 0;"/><defs><linearGradient id="gr113" x1="0%" x2="100%" y1="0%" y2="100%"><stop offset="0%" stop-color="rgb(69,69,69)"/><stop offset="100%" stop-color="rgb(73,73,73)"/></linearGradient></defs><polygon id="triangle36" points="5,643 99,560 150,653" style="fill: url(#gr113); stroke: rgb(0, 0, 0); stroke-width: 0;"/><defs><linearGradient id="gr114" x1="0%" x2="100%" y1="0%" y2="100%"><stop offset="0%" stop-color="rgb(75,75,75)"/><stop offset="100%" stop-color="rgb(73,73,73)"/></linearGradient></defs><polygon id="triangle36" points="99,560 243,543 150,653" style="fill: url(#gr114); stroke: rgb(0, 0, 0); stroke-width: 0;"/><defs><linearGradient id="gr115" x1="0%" x2="100%" y1="0%" y2="100%"><stop offset="0%" stop-color="rgb(61,61,61)"/><stop offset="100%" stop-color="rgb(61,61,61)"/></linearGradient></defs><polygon id="triangle36" points="1,886 105,943 179,878" style="fill: url(#gr115); stroke: rgb(0, 0, 0); stroke-width: 0;"/><defs><linearGradient id="gr116" x1="0%" x2="100%" y1="0%" y2="100%"><stop offset="0%" stop-color="rgb(61,61,61)"/><stop offset="100%" stop-color="rgb(63,63,63)"/></linearGradient></defs><polygon id="triangle36" points="1,886 206,722 179,878" style="fill: url(#gr116); stroke: rgb(0, 0, 0); stroke-width: 0;"/><defs><linearGradient id="gr117" x1="0%" x2="100%" y1="0%" y2="100%"><stop offset="0%" stop-color="rgb(61,61,61)"/><stop offset="100%" stop-color="rgb(61,61,61)"/></linearGradient></defs><polygon id="triangle36" points="105,943 304,966 179,878" style="fill: url(#gr117); stroke: rgb(0, 0, 0); stroke-width: 0;"/><defs><linearGradient id="gr118" x1="0%" x2="100%" y1="0%" y2="100%"><stop offset="0%" stop-color="rgb(60,60,60)"/><stop offset="100%" stop-color="rgb(60,60,60)"/></linearGradient></defs><polygon id="triangle36" points="206,722 277,729 179,878" style="fill: url(#gr118); stroke: rgb(0, 0, 0); stroke-width: 0;"/><defs><linearGradient id="gr119" x1="0%" x2="100%" y1="0%" y2="100%"><stop offset="0%" stop-color="rgb(65,65,65)"/><stop offset="100%" stop-color="rgb(61,61,61)"/></linearGradient></defs><polygon id="triangle36" points="277,729 304,966 179,878" style="fill: url(#gr119); stroke: rgb(0, 0, 0); stroke-width: 0;"/><defs><linearGradient id="gr120" x1="0%" x2="100%" y1="0%" y2="100%"><stop offset="0%" stop-color="rgb(65,65,65)"/><stop offset="100%" stop-color="rgb(61,61,61)"/></linearGradient></defs><polygon id="triangle36" points="277,729 304,966 478,889" style="fill: url(#gr120); stroke: rgb(0, 0, 0); stroke-width: 0;"/><defs><linearGradient id="gr121" x1="0%" x2="100%" y1="0%" y2="100%"><stop offset="0%" stop-color="rgb(60,60,60)"/><stop offset="100%" stop-color="rgb(60,60,60)"/></linearGradient></defs><polygon id="triangle36" points="277,729 360,670 478,889" style="fill: url(#gr121); stroke: rgb(0, 0, 0); stroke-width: 0;"/><defs><linearGradient id="gr122" x1="0%" x2="100%" y1="0%" y2="100%"><stop offset="0%" stop-color="rgb(51,51,51)"/><stop offset="100%" stop-color="rgb(54,54,54)"/></linearGradient></defs><polygon id="triangle36" points="304,966 361,1130 478,889" style="fill: url(#gr122); stroke: rgb(0, 0, 0); stroke-width: 0;"/><defs><linearGradient id="gr123" x1="0%" x2="100%" y1="0%" y2="100%"><stop offset="0%" stop-color="rgb(56,56,56)"/><stop offset="100%" stop-color="rgb(54,54,54)"/></linearGradient></defs><polygon id="triangle36" points="361,1130 573,1103 478,889" style="fill: url(#gr123); stroke: rgb(0, 0, 0); stroke-width: 0;"/><defs><linearGradient id="gr124" x1="0%" x2="100%" y1="0%" y2="100%"><stop offset="0%" stop-color="rgb(56,56,56)"/><stop offset="100%" stop-color="rgb(61,61,61)"/></linearGradient></defs><polygon id="triangle36" points="573,1103 591,923 478,889" style="fill: url(#gr124); stroke: rgb(0, 0, 0); stroke-width: 0;"/><defs><linearGradient id="gr125" x1="0%" x2="100%" y1="0%" y2="100%"><stop offset="0%" stop-color="rgb(61,61,61)"/><stop offset="100%" stop-color="rgb(58,58,58)"/></linearGradient></defs><polygon id="triangle36" points="591,923 642,753 675,874" style="fill: url(#gr125); stroke: rgb(0, 0, 0); stroke-width: 0;"/><defs><linearGradient id="gr126" x1="0%" x2="100%" y1="0%" y2="100%"><stop offset="0%" stop-color="rgb(61,61,61)"/><stop offset="100%" stop-color="rgb(58,58,58)"/></linearGradient></defs><polygon id="triangle36" points="591,923 797,1018 675,874" style="fill: url(#gr126); stroke: rgb(0, 0, 0); stroke-width: 0;"/><defs><linearGradient id="gr127" x1="0%" x2="100%" y1="0%" y2="100%"><stop offset="0%" stop-color="rgb(55,55,55)"/><stop offset="100%" stop-color="rgb(64,64,64)"/></linearGradient></defs><polygon id="triangle36" points="642,753 797,740 675,874" style="fill: url(#gr127); stroke: rgb(0, 0, 0); stroke-width: 0;"/><defs><linearGradient id="gr128" x1="0%" x2="100%" y1="0%" y2="100%"><stop offset="0%" stop-color="rgb(61,61,61)"/><stop offset="100%" stop-color="rgb(58,58,58)"/></linearGradient></defs><polygon id="triangle36" points="794,905 797,1018 675,874" style="fill: url(#gr128); stroke: rgb(0, 0, 0); stroke-width: 0;"/><defs><linearGradient id="gr129" x1="0%" x2="100%" y1="0%" y2="100%"><stop offset="0%" stop-color="rgb(61,61,61)"/><stop offset="100%" stop-color="rgb(65,65,65)"/></linearGradient></defs><polygon id="triangle36" points="794,905 797,740 675,874" style="fill: url(#gr129); stroke: rgb(0, 0, 0); stroke-width: 0;"/><defs><linearGradient id="gr130" x1="0%" x2="100%" y1="0%" y2="100%"><stop offset="0%" stop-color="rgb(69,69,69)"/><stop offset="100%" stop-color="rgb(69,69,69)"/></linearGradient></defs><polygon id="triangle36" points="360,670 434,638 568,742" style="fill: url(#gr130); stroke: rgb(0, 0, 0); stroke-width: 0;"/><defs><linearGradient id="gr131" x1="0%" x2="100%" y1="0%" y2="100%"><stop offset="0%" stop-color="rgb(60,60,60)"/><stop offset="100%" stop-color="rgb(60,60,60)"/></linearGradient></defs><polygon id="triangle36" points="360,670 478,889 568,742" style="fill: url(#gr131); stroke: rgb(0, 0, 0); stroke-width: 0;"/><defs><linearGradient id="gr132" x1="0%" x2="100%" y1="0%" y2="100%"><stop offset="0%" stop-color="rgb(69,69,69)"/><stop offset="100%" stop-color="rgb(69,69,69)"/></linearGradient></defs><polygon id="triangle36" points="434,638 531,635 568,742" style="fill: url(#gr132); stroke: rgb(0, 0, 0); stroke-width: 0;"/><defs><linearGradient id="gr133" x1="0%" x2="100%" y1="0%" y2="100%"><stop offset="0%" stop-color="rgb(61,61,61)"/><stop offset="100%" stop-color="rgb(63,63,63)"/></linearGradient></defs><polygon id="triangle36" points="478,889 591,923 568,742" style="fill: url(#gr133); stroke: rgb(0, 0, 0); stroke-width: 0;"/><defs><linearGradient id="gr134" x1="0%" x2="100%" y1="0%" y2="100%"><stop offset="0%" stop-color="rgb(69,69,69)"/><stop offset="100%" stop-color="rgb(63,63,63)"/></linearGradient></defs><polygon id="triangle36" points="531,635 642,753 568,742" style="fill: url(#gr134); stroke: rgb(0, 0, 0); stroke-width: 0;"/><defs><linearGradient id="gr135" x1="0%" x2="100%" y1="0%" y2="100%"><stop offset="0%" stop-color="rgb(60,60,60)"/><stop offset="100%" stop-color="rgb(60,60,60)"/></linearGradient></defs><polygon id="triangle36" points="591,923 642,753 568,742" style="fill: url(#gr135); stroke: rgb(0, 0, 0); stroke-width: 0;"/></svg>